<?xml version="1.0" standalone="no"?>
<!DOCTYPE svg PUBLIC "-//W3C//DTD SVG 20010904//EN"
 "http://www.w3.org/TR/2001/REC-SVG-20010904/DTD/svg10.dtd">
<svg version="1.0" xmlns="http://www.w3.org/2000/svg"
 width="587.000000pt" height="274.000000pt" viewBox="0 0 587.000000 274.000000"
 preserveAspectRatio="xMidYMid meet">

<g transform="translate(0.000000,274.000000) scale(0.100000,-0.100000)"
fill="#000000" stroke="none">
<path d="M62 1363 l3 -1318 1320 0 1320 0 0 1315 0 1315 -1323 3 -1322 2 2
-1317z m768 1202 c0 -2 -33 -37 -73 -77 -122 -122 -190 -247 -256 -471 -30
-101 -31 -110 -16 -133 8 -13 37 -35 63 -48 48 -24 49 -25 71 -110 27 -103 61
-155 152 -239 79 -74 172 -126 279 -157 65 -19 112 -23 345 -30 212 -5 279
-10 313 -23 204 -77 345 -236 387 -433 20 -94 19 -157 -5 -248 -28 -110 -74
-190 -155 -271 -95 -95 -217 -156 -333 -167 l-33 -3 -2 75 -2 76 38 18 c73 35
114 138 87 220 -15 47 -56 95 -94 111 -31 13 -31 14 -28 79 5 81 -22 136 -84
172 -34 20 -54 24 -125 24 -135 0 -299 17 -390 40 -104 26 -282 112 -370 179
-174 132 -305 318 -372 526 -43 132 -47 181 -47 547 l0 348 325 0 c179 0 325
-2 325 -5z m366 -37 c-3 -24 -2 -58 3 -76 9 -29 7 -34 -13 -41 -37 -15 -88
-63 -102 -98 -17 -39 -18 -111 -3 -150 14 -38 46 -71 91 -94 35 -18 36 -20 27
-54 -20 -71 18 -161 83 -198 40 -23 56 -25 223 -30 147 -4 197 -10 276 -30
411 -107 710 -421 790 -830 16 -84 19 -144 19 -437 l0 -340 -330 0 c-181 0
-330 4 -330 8 0 4 19 22 43 40 92 70 174 193 219 327 20 60 23 89 23 205 -1
120 -4 144 -28 216 -54 162 -183 313 -335 392 -128 67 -173 74 -472 82 -285 8
-305 11 -410 66 -138 72 -218 168 -246 293 -14 63 -23 82 -53 111 -20 19 -44
40 -54 45 -18 9 -17 15 13 110 41 127 86 216 147 292 115 143 230 207 417 232
4 0 5 -18 2 -41z m1394 -615 c-1 -520 -3 -654 -13 -641 -7 9 -34 52 -62 95
-57 90 -191 233 -285 304 -84 64 -261 151 -371 183 -118 34 -217 46 -368 46
-115 0 -131 2 -155 21 -19 15 -26 30 -26 54 0 24 7 39 26 54 26 20 38 21 361
21 211 0 341 4 354 10 22 12 27 68 7 88 -9 9 -116 12 -420 12 l-409 0 -24 25
c-14 13 -25 36 -25 50 0 14 11 37 25 50 l24 25 401 0 c258 0 408 4 421 10 22
12 27 68 7 88 -9 9 -101 12 -354 12 -330 0 -342 1 -368 21 -19 15 -26 30 -26
54 0 24 7 39 26 54 26 21 35 21 640 21 l614 0 0 -657z m-2361 -522 c133 -225
348 -403 599 -497 123 -47 236 -66 416 -72 161 -4 171 -6 193 -28 26 -26 29
-60 7 -89 -14 -19 -30 -20 -365 -25 -349 -5 -351 -5 -369 -27 -20 -25 -17 -61
8 -80 12 -10 110 -13 413 -13 219 0 405 -3 414 -6 22 -9 47 -61 40 -84 -3 -11
-18 -29 -32 -40 -25 -19 -39 -20 -429 -20 l-404 0 -15 -24 c-18 -27 -7 -69 20
-80 9 -3 167 -6 351 -6 l335 0 24 -25 c39 -38 32 -86 -16 -110 -24 -13 -122
-15 -634 -15 l-605 0 0 639 c0 352 -3 646 -6 655 -3 9 -2 16 4 16 5 0 28 -31
51 -69z"/>
<path d="M859 2069 c-15 -15 -19 -28 -14 -47 9 -37 19 -45 56 -45 55 0 77 55
39 93 -26 26 -55 25 -81 -1z"/>
<path d="M2950 1960 l0 -190 105 0 105 0 0 30 0 30 -70 0 -70 0 0 55 0 55 60
0 c57 0 60 1 60 25 0 22 -4 24 -57 27 l-58 3 -3 48 -3 47 70 0 71 0 0 30 0 30
-105 0 -105 0 0 -190z"/>
<path d="M3210 1960 l0 -190 105 0 105 0 0 30 0 30 -70 0 -70 0 0 160 0 160
-35 0 -35 0 0 -190z"/>
<path d="M3460 1960 l0 -190 105 0 105 0 0 30 0 30 -70 0 -70 0 0 55 0 55 60
0 c57 0 60 1 60 25 0 22 -4 24 -57 27 l-58 3 -3 48 -3 47 70 0 71 0 0 30 0 30
-105 0 -105 0 0 -190z"/>
<path d="M3769 2135 c-39 -21 -59 -81 -59 -175 0 -139 38 -190 140 -190 44 0
56 4 81 29 16 16 29 36 29 44 0 9 3 22 6 31 5 13 -1 16 -28 16 -29 0 -37 -5
-49 -32 -17 -41 -56 -49 -84 -18 -23 26 -33 160 -15 214 19 59 82 63 101 6 9
-26 16 -30 46 -30 34 0 34 1 28 33 -4 17 -20 44 -36 60 -24 22 -38 27 -82 27
-28 -1 -64 -7 -78 -15z"/>
<path d="M3990 2120 c0 -28 2 -30 40 -30 l40 0 0 -160 0 -160 40 0 40 0 0 160
0 160 45 0 c43 0 45 1 45 30 l0 30 -125 0 -125 0 0 -30z"/>
<path d="M4321 2137 c-47 -24 -64 -60 -69 -149 -5 -98 8 -155 44 -189 22 -21
35 -24 95 -24 60 0 72 3 94 26 31 31 45 82 44 164 -1 87 -18 135 -58 162 -38
26 -110 31 -150 10z m109 -57 c17 -17 20 -33 20 -120 0 -87 -3 -103 -20 -120
-25 -25 -51 -25 -81 -1 -22 18 -24 26 -24 121 0 95 2 103 24 121 30 24 56 24
81 -1z"/>
<path d="M4580 1961 l0 -191 35 0 35 0 0 75 0 75 33 0 c43 0 57 -15 57 -65 0
-73 8 -85 50 -85 l39 0 -10 32 c-5 18 -9 50 -9 71 0 26 -7 45 -22 60 l-23 22
23 22 c33 33 30 93 -7 135 -28 32 -33 33 -115 37 l-86 3 0 -191z m154 97 c16
-44 -6 -78 -49 -78 l-35 0 0 56 0 55 37 -3 c31 -2 39 -8 47 -30z"/>
<path d="M4901 1967 c-28 -101 -51 -187 -51 -190 0 -4 16 -7 35 -7 32 0 35 3
45 40 11 40 11 40 59 40 48 0 49 -1 58 -37 8 -35 12 -38 47 -41 33 -3 38 -1
34 15 -3 10 -27 96 -53 191 l-48 172 -37 0 -37 0 -52 -183z m98 31 c5 -13 12
-38 16 -55 6 -32 5 -33 -25 -33 -30 0 -32 2 -26 26 4 15 10 39 13 55 7 35 11
36 22 7z"/>
<path d="M5170 1960 l0 -190 105 0 105 0 0 30 0 30 -70 0 -70 0 0 160 0 160
-35 0 -35 0 0 -190z"/>
<path d="M2950 1330 l0 -190 35 0 35 0 1 118 0 117 15 -50 c9 -27 24 -80 35
-117 17 -59 23 -68 43 -68 21 0 26 11 57 118 l34 117 3 -117 3 -118 34 0 35 0
0 190 0 190 -48 0 -48 0 -34 -140 c-19 -77 -36 -138 -38 -136 -2 3 -15 49 -28
103 -49 193 -39 173 -89 173 l-45 0 0 -190z"/>
<path d="M3401 1507 c-47 -24 -64 -60 -69 -149 -5 -98 8 -155 44 -189 22 -21
35 -24 95 -24 60 0 72 3 94 26 31 31 45 82 44 164 -1 87 -18 135 -58 162 -38
26 -110 31 -150 10z m109 -57 c17 -17 20 -33 20 -120 0 -87 -3 -103 -20 -120
-25 -25 -51 -25 -81 -1 -22 18 -24 26 -24 121 0 95 2 103 24 121 30 24 56 24
81 -1z"/>
<path d="M3650 1330 l0 -190 35 0 34 0 3 118 3 117 60 -117 60 -118 37 0 38 0
0 190 0 190 -40 0 -40 0 -1 -117 0 -118 -60 118 c-59 116 -60 117 -94 117
l-35 0 0 -190z"/>
<path d="M3980 1330 l0 -190 40 0 40 0 0 190 0 190 -40 0 -40 0 0 -190z"/>
<path d="M4090 1490 c0 -28 2 -30 40 -30 l40 0 0 -160 0 -160 40 0 40 0 0 160
0 160 45 0 c43 0 45 1 45 30 l0 30 -125 0 -125 0 0 -30z"/>
<path d="M4431 1507 c-47 -24 -64 -60 -69 -149 -5 -98 8 -155 44 -189 22 -21
35 -24 95 -24 60 0 72 3 94 26 31 31 45 82 44 164 -1 87 -18 135 -58 162 -38
26 -110 31 -150 10z m109 -57 c17 -17 20 -33 20 -120 0 -87 -3 -103 -20 -120
-25 -25 -51 -25 -81 -1 -22 18 -24 26 -24 121 0 95 2 103 24 121 30 24 56 24
81 -1z"/>
<path d="M4680 1331 l0 -191 35 0 35 0 0 75 0 75 33 0 c43 0 57 -15 57 -65 0
-73 8 -85 50 -85 l39 0 -10 32 c-5 18 -9 50 -9 71 0 26 -7 45 -22 60 l-23 22
23 22 c33 33 30 93 -7 135 -28 32 -33 33 -115 37 l-86 3 0 -191z m154 97 c16
-44 -6 -78 -49 -78 l-35 0 0 56 0 55 37 -3 c31 -2 39 -8 47 -30z"/>
<path d="M4980 1330 l0 -190 40 0 40 0 0 190 0 190 -40 0 -40 0 0 -190z"/>
<path d="M5120 1330 l0 -190 35 0 34 0 3 118 3 117 60 -117 60 -118 37 0 38 0
0 190 0 190 -40 0 -40 0 -1 -117 0 -118 -60 118 c-59 116 -60 117 -94 117
l-35 0 0 -190z"/>
<path d="M5492 1507 c-44 -25 -56 -56 -60 -155 -7 -156 29 -212 138 -212 36 0
63 7 86 21 34 21 34 21 34 100 l0 79 -65 0 c-63 0 -65 -1 -65 -25 0 -21 5 -25
30 -25 28 0 30 -2 30 -38 0 -45 -14 -62 -50 -62 -51 0 -65 31 -65 140 0 82 3
101 19 119 28 31 63 27 84 -9 12 -22 24 -30 45 -30 23 0 27 4 27 29 0 46 -49
81 -113 81 -29 -1 -62 -6 -75 -13z"/>
<path d="M2979 851 c-22 -22 -29 -39 -29 -68 0 -53 21 -79 95 -114 69 -32 85
-58 59 -97 -22 -34 -65 -27 -84 15 -13 27 -21 33 -49 33 -33 0 -33 -1 -27 -32
10 -53 46 -81 109 -86 72 -6 112 15 128 66 9 31 8 45 -4 75 -13 29 -28 42 -84
70 -60 29 -68 37 -71 64 -2 24 2 34 19 43 29 16 69 -2 69 -30 0 -16 7 -20 35
-20 31 0 35 3 35 26 0 15 -12 38 -29 55 -26 25 -37 29 -86 29 -49 0 -60 -4
-86 -29z"/>
<path d="M3210 872 c0 -4 23 -59 50 -120 45 -100 50 -119 50 -182 l0 -70 35 0
35 0 0 65 c0 58 6 80 55 187 30 66 55 123 55 124 0 2 -18 4 -39 4 l-39 0 -27
-75 c-16 -42 -31 -78 -35 -80 -4 -2 -21 30 -37 73 -29 75 -31 77 -67 80 -20 2
-36 -1 -36 -6z"/>
<path d="M3559 851 c-22 -22 -29 -39 -29 -68 0 -53 21 -79 95 -114 69 -32 85
-58 59 -97 -22 -34 -65 -27 -84 15 -13 27 -21 33 -49 33 -33 0 -33 -1 -27 -32
10 -53 46 -81 109 -86 72 -6 112 15 128 66 9 31 8 45 -4 75 -13 29 -28 42 -84
70 -60 29 -68 37 -71 64 -2 24 2 34 19 43 29 16 69 -2 69 -30 0 -16 7 -20 35
-20 31 0 35 3 35 26 0 15 -12 38 -29 55 -26 25 -37 29 -86 29 -49 0 -60 -4
-86 -29z"/>
<path d="M3790 850 c0 -28 2 -30 40 -30 l40 0 0 -160 0 -160 40 0 40 0 0 160
0 160 45 0 c43 0 45 1 45 30 l0 30 -125 0 -125 0 0 -30z"/>
<path d="M4070 690 l0 -190 105 0 105 0 0 30 0 30 -70 0 -70 0 0 55 0 55 60 0
c57 0 60 1 60 25 0 22 -4 24 -57 27 l-58 3 -3 48 -3 47 70 0 71 0 0 30 0 30
-105 0 -105 0 0 -190z"/>
<path d="M4330 690 l0 -190 35 0 35 0 1 118 0 117 15 -50 c9 -27 24 -80 35
-117 17 -59 23 -68 43 -68 21 0 26 11 57 118 l34 117 3 -117 3 -118 34 0 35 0
0 190 0 190 -48 0 -48 0 -34 -140 c-19 -77 -36 -138 -38 -136 -2 3 -15 49 -28
103 -49 193 -39 173 -89 173 l-45 0 0 -190z"/>
</g>
</svg>
